<svg width="343" height="343" viewBox="0 0 343 343" fill="none" xmlns="http://www.w3.org/2000/svg">
<rect width="343" height="343" rx="171.5" fill="#111827"/>
<path d="M84.148 107.66L122.128 108.2C141.808 108.2 156.208 107.48 165.328 106.04C166.648 108.56 167.308 111.44 167.308 114.68C167.308 117.92 165.868 120.86 162.988 123.5C160.108 126.02 156.628 127.28 152.548 127.28L131.848 124.94C131.848 125.78 131.548 129.5 130.948 136.1C129.268 152.3 128.428 168.56 128.428 184.88C128.428 201.2 129.688 217.52 132.208 233.84C128.248 235.28 124.108 236 119.788 236C115.468 236 111.748 234.8 108.628 232.4C105.508 229.88 103.948 226.16 103.948 221.24C103.948 216.2 104.548 207.38 105.748 194.78C106.948 182.18 107.548 169.94 107.548 158.06C107.548 146.06 106.948 134.9 105.748 124.58C91.228 125.3 79.888 127.34 71.728 130.7C70.288 127.94 69.568 124.88 69.568 121.52C69.568 118.04 70.948 114.86 73.708 111.98C76.468 109.1 79.948 107.66 84.148 107.66ZM178.964 113.96C192.404 109.4 206.324 107.12 220.724 107.12C235.124 107.12 247.064 110.18 256.544 116.3C266.024 122.42 270.764 131.78 270.764 144.38C270.764 156.98 266.324 167.6 257.444 176.24C248.564 184.76 237.884 189.02 225.404 189.02C216.284 189.02 211.724 185.54 211.724 178.58C211.724 176.42 212.144 174.14 212.984 171.74C216.224 172.58 219.164 173 221.804 173C230.084 173 236.324 170.72 240.524 166.16C244.844 161.6 247.004 155.3 247.004 147.26C247.004 139.1 244.724 133.04 240.164 129.08C235.604 125.12 229.244 123.14 221.084 123.14C216.884 123.14 211.784 123.86 205.784 125.3C204.824 140.06 204.344 153.14 204.344 164.54C204.344 196.46 205.604 219.56 208.124 233.84C204.284 235.28 200.204 236 195.884 236C191.564 236 187.784 234.62 184.544 231.86C181.424 229.1 179.864 225.44 179.864 220.88C179.864 216.32 180.464 208.4 181.664 197.12C182.864 185.72 183.464 176.6 183.464 169.76C183.464 148.88 181.964 130.28 178.964 113.96Z" fill="white"/>
</svg>
